<?xml version="1.0" encoding="UTF-8"?>
<svg width="40px" height="40px" viewBox="0 0 40 40" version="1.1" xmlns="http://www.w3.org/2000/svg" xmlns:xlink="http://www.w3.org/1999/xlink">
    <title>boost_icon2</title>
    <g id="Dashboard-" stroke="none" stroke-width="1" fill="none" fill-rule="evenodd">
        <g id="Artboard-5_p" transform="translate(-747.000000, -396.000000)" fill="#AEB4B7" fill-rule="nonzero">
            <g id="boost_icon2" transform="translate(747.000000, 396.000000)">
                <g id="Group">
                    <path d="M20,0 C19.6460156,0 19.3310156,0.223828125 19.2138281,0.557421875 C19.0966406,0.891015625 19.2032812,1.26296875 19.4791406,1.484375 L23.6457812,4.81773437 C24.0071094,5.10742187 24.5303906,5.045625 24.8176562,4.6875 C25.1049219,4.3278125 25.0463281,3.80367187 24.6874219,3.515625 L22.6065625,1.85140625 C31.4851562,3.1209375 38.3333594,10.7755469 38.3333594,20 C38.3333594,28.2560156 32.76125,35.5265625 24.7827344,37.6798437 C24.3383594,37.8003125 24.0755469,38.2576563 24.1951562,38.7019531 C24.2960937,39.0738281 24.6321875,39.3179687 24.9992187,39.3179687 C25.0716406,39.3179687 25.1449219,39.3089844 25.2173437,39.2894531 C33.9209375,36.9392969 40,29.0071875 40,20 C40,8.9721875 31.0278125,0 20,0 Z" id="Path"></path>
                    <path d="M16.3541406,35.1822656 C15.9944531,34.8941406 15.4711719,34.954375 15.1822656,35.3125 C14.895,35.6721875 14.9535938,36.1963281 15.3125,36.484375 L17.3933594,38.1485938 C8.51484375,36.8790625 1.66664063,29.2244531 1.66664063,20 C1.66664063,11.7439844 7.23875,4.4734375 15.2172656,2.32015625 C15.6616406,2.1996875 15.9244531,1.74234375 15.8048438,1.29804688 C15.684375,0.852890625 15.2229688,0.59328125 14.7827344,0.71046875 C6.07914063,3.06070313 0,10.9928125 0,20 C0,31.0278125 8.9721875,40 20,40 C20.3539844,40 20.6689844,39.7761719 20.7861719,39.4425781 C20.9033594,39.1089844 20.7967188,38.7370313 20.5208594,38.515625 L16.3541406,35.1822656 Z" id="Path"></path>
                    <circle id="Oval" cx="20" cy="14.1666406" r="5.83335937"></circle>
                </g>
                <path d="M11.3082196,23.8138058 C9.61959657,24.6805246 8.57142857,26.3878683 8.57142857,28.2702121 L8.57142857,29.0327121 C8.57142857,30.3534933 9.65084983,31.4285714 10.9769035,31.4285714 L29.7373822,31.4285714 C31.0634359,31.4285714 32.1428571,30.3535714 32.1428571,29.0327121 L32.1428571,28.2702121 C32.1428571,26.3878683 31.0946891,24.6805246 29.4060661,23.8138058 C27.2866848,22.7257589 23.9957798,21.4285714 20.3571429,21.4285714 C16.7185059,21.4285714 13.4276009,22.7257589 11.3082196,23.8138058 Z" id="Path"></path>
                <path d="M20,0 C19.6460156,0 19.3310156,0.223828125 19.2138281,0.557421875 C19.0966406,0.891015625 19.2032812,1.26296875 19.4791406,1.484375 L23.6457812,4.81773437 C24.0071094,5.10742187 24.5303906,5.045625 24.8176562,4.6875 C25.1049219,4.3278125 25.0463281,3.80367187 24.6874219,3.515625 L22.6065625,1.85140625 C31.4851562,3.1209375 38.3333594,10.7755469 38.3333594,20 C38.3333594,28.2560156 32.76125,35.5265625 24.7827344,37.6798437 C24.3383594,37.8003125 24.0755469,38.2576563 24.1951562,38.7019531 C24.2960937,39.0738281 24.6321875,39.3179687 24.9992187,39.3179687 C25.0716406,39.3179687 25.1449219,39.3089844 25.2173437,39.2894531 C33.9209375,36.9392969 40,29.0071875 40,20 C40,8.9721875 31.0278125,0 20,0 Z M16.3541406,35.1822656 C15.9944531,34.8941406 15.4711719,34.954375 15.1822656,35.3125 C14.895,35.6721875 14.9535938,36.1963281 15.3125,36.484375 L17.3933594,38.1485938 C8.51484375,36.8790625 1.66664063,29.2244531 1.66664063,20 C1.66664063,11.7439844 7.23875,4.4734375 15.2172656,2.32015625 C15.6616406,2.1996875 15.9244531,1.74234375 15.8048438,1.29804687 C15.684375,0.852890625 15.2229688,0.59328125 14.7827344,0.71046875 C6.07914063,3.06070312 0,10.9928125 0,20 C0,31.0278125 8.9721875,40 20,40 C20.3539844,40 20.6689844,39.7761719 20.7861719,39.4425781 C20.9033594,39.1089844 20.7967188,38.7370313 20.5208594,38.515625 L16.3541406,35.1822656 Z" id="Shape"></path>
            </g>
        </g>
    </g>
</svg>