<?xml version="1.0" encoding="UTF-8"?>
<svg width="40px" height="34px" viewBox="0 0 40 34" version="1.1" xmlns="http://www.w3.org/2000/svg" xmlns:xlink="http://www.w3.org/1999/xlink">
    <title>Goal_icon1</title>
    <g id="Dashboard-" stroke="none" stroke-width="1" fill="none" fill-rule="evenodd">
        <g id="Artboard-5_p" transform="translate(-440.000000, -401.000000)" fill="#AEB4B7" fill-rule="nonzero">
            <g id="Group-3" transform="translate(318.000000, 366.000000)">
                <g id="Goal_icon1" transform="translate(122.000000, 35.000000)">
                    <path d="M34.1341104,18.440678 L31.1186441,18.440678 C31.426009,19.301036 31.5939326,20.2295219 31.5939326,21.1972495 L31.5939326,32.8490667 C31.5939326,33.2525396 31.5252401,33.6398175 31.4002683,34 L36.3855053,34 C38.2477439,34 39.7627119,32.4510441 39.7627119,30.5472002 L39.7627119,24.1952664 C39.7627119,21.0222192 37.2377652,18.440678 34.1341104,18.440678 Z" id="Path"></path>
                    <path d="M8.16878343,21.1972357 C8.16878343,20.2294351 8.33670556,19.3010317 8.6440678,18.440678 L5.62862801,18.440678 C2.52500055,18.440678 0,21.0222063 0,24.1953155 L0,30.5472175 C0,32.4510518 1.51495463,34 3.37717681,34 L8.36244601,34 C8.23747539,33.6396636 8.16878343,33.2524655 8.16878343,32.8489946 L8.16878343,21.1972357 Z" id="Path"></path>
                    <path d="M23.0950938,15.559322 L16.0913469,15.559322 C12.938183,15.559322 10.3728814,18.1246237 10.3728814,21.2777876 L10.3728814,32.8563069 C10.3728814,33.4878836 10.8849204,34 11.5165745,34 L27.6698662,34 C28.3015203,34 28.8135593,33.487961 28.8135593,32.8563069 L28.8135593,21.2777876 C28.8135593,18.1246237 26.2482577,15.559322 23.0950938,15.559322 Z" id="Path"></path>
                    <path d="M19.5932203,0 C15.780129,0 12.6779661,3.1021454 12.6779661,6.91529314 C12.6779661,9.50171095 14.1055025,11.7605962 16.2137036,12.9465596 C17.2136559,13.5090442 18.3664835,13.8305085 19.5932203,13.8305085 C20.8199572,13.8305085 21.9727848,13.5090442 22.9727371,12.9465596 C25.081016,11.7605962 26.5084746,9.50163315 26.5084746,6.91529314 C26.5084746,3.1022232 23.4063117,0 19.5932203,0 Z" id="Path"></path>
                    <path d="M7.49152542,6.33898305 C4.63166859,6.33898305 2.30508475,8.66556689 2.30508475,11.5254237 C2.30508475,14.3852806 4.63166859,16.7118644 7.49152542,16.7118644 C8.21696394,16.7118644 8.90776117,16.5615961 9.53528343,16.2914877 C10.6202423,15.8243764 11.5148302,14.9975107 12.0683887,13.961783 C12.4569328,13.2348621 12.6779661,12.4055777 12.6779661,11.5254237 C12.6779661,8.66564492 10.3513823,6.33898305 7.49152542,6.33898305 Z" id="Path"></path>
                    <path d="M32.2711864,6.33898305 C29.4113296,6.33898305 27.0847458,8.66556689 27.0847458,11.5254237 C27.0847458,12.4056558 27.305779,13.2349401 27.6943232,13.961783 C28.2478816,14.9975887 29.1424695,15.8244545 30.2274284,16.2914877 C30.8549507,16.5615961 31.5457479,16.7118644 32.2711864,16.7118644 C35.1310433,16.7118644 37.4576271,14.3852806 37.4576271,11.5254237 C37.4576271,8.66556689 35.1310433,6.33898305 32.2711864,6.33898305 Z" id="Path"></path>
                </g>
            </g>
        </g>
    </g>
</svg>