<?xml version="1.0" encoding="UTF-8"?>
<svg width="40px" height="40px" viewBox="0 0 40 40" version="1.1" xmlns="http://www.w3.org/2000/svg" xmlns:xlink="http://www.w3.org/1999/xlink">
    <title>newcustomers_hover</title>
    <g id="Dashboard-" stroke="none" stroke-width="1" fill="none" fill-rule="evenodd">
        <g id="Artboard-5_p" transform="translate(-1053.000000, -396.000000)" fill="#6B9CF3" fill-rule="nonzero">
            <g id="Group-3" transform="translate(930.000000, 366.000000)">
                <g id="newcustomers_hover" transform="translate(123.000000, 30.000000)">
                    <path d="M33.9127223,31.149466 C33.640079,30.8708031 33.3050563,30.661957 32.9389961,30.5304837 C32.7831999,30.4606669 32.6429224,30.3911523 32.5181638,30.3213355 C31.7705246,29.9269156 31.0146696,29.5246375 30.2746377,29.1066432 C29.5659475,28.6735369 28.7869665,28.3640457 27.9690365,28.1860279 C27.8521893,28.1627556 27.7274307,28.1319274 27.6029762,28.100797 C27.6884816,29.5167794 27.5561157,31.6678032 26.3176576,33.2074008 L33.2192467,33.2074008 C33.6087372,33.2152589 33.9358484,32.9057678 33.9437599,32.5110457 L33.9437599,31.8687912 C33.9437599,31.7838624 33.9516714,31.6986315 33.9516714,31.6058446 C33.9747974,31.451099 33.9592787,31.2963534 33.9127223,31.149466 Z M26.2239365,27.5670456 C25.8968253,27.4123 25.5931444,27.2421403 25.3205011,27.0949508 L25.3205011,27.9306373 C25.3205011,28.2942289 25.0244274,28.588306 24.6583672,28.588306 C24.292307,28.588306 23.9962334,28.2942289 23.9962334,27.9306373 L23.9962334,26.1045187 C23.3027578,27.0487084 22.6406239,27.9306373 21.0437129,27.9306373 L18.9718059,27.9306373 C17.3748949,27.9306373 16.712761,27.0487084 16.0192854,26.1045187 L16.0192854,27.9306373 C16.0192854,28.2942289 15.723516,28.588306 15.3571516,28.588306 C14.9910913,28.588306 14.6950177,28.2942289 14.6950177,27.9306373 L14.6950177,27.0949508 C14.4223744,27.2496963 14.1186935,27.4123 13.7915823,27.5670456 C13.6278746,28.9364835 13.5265462,32.0313949 15.7156045,33.2074008 L24.3078258,33.2074008 C26.4889726,32.0313949 26.3876442,28.9364835 26.2239365,27.5670456 L26.2239365,27.5670456 Z M12.3970238,28.100797 C12.2725693,28.1319274 12.1478107,28.1627556 12.0309635,28.1860279 C11.2130335,28.3561876 10.4340525,28.6735369 9.7253623,29.1066432 C8.98533035,29.5246375 8.23738692,29.9269156 7.48183619,30.3213355 C7.35707755,30.3911523 7.21680013,30.4606669 7.06100393,30.5304837 C6.6949437,30.661957 6.35992103,30.8708031 6.08727768,31.149466 C6.04072134,31.2963534 6.02520256,31.451099 6.04832863,31.6058446 C6.04832863,31.6986315 6.05624012,31.7838624 6.05624012,31.8687912 L6.05624012,32.5110457 C6.06415161,32.8979096 6.39126279,33.2074008 6.78075329,33.2074008 L13.6823424,33.2074008 C12.4438843,31.6678032 12.3115184,29.5167794 12.3970238,28.100797 L12.3970238,28.100797 Z M14.9055859,22.9322345 C15.0066101,23.0328796 15.11585,23.1335246 15.2482159,23.2417256 C15.93378,23.8377378 16.541446,24.5262347 17.055391,25.2766903 C17.7409551,26.2205779 18.060459,26.6074418 18.9638944,26.6074418 L21.0361056,26.6074418 C21.939541,26.6074418 22.2590449,26.228436 22.944609,25.2766903 C23.458554,24.5262347 24.06622,23.8452938 24.7517841,23.2417256 C24.8765427,23.1335246 24.9933899,23.0328796 25.0944141,22.9322345 L25.7878897,21.3231223 L14.2200218,21.3231223 L14.9055859,22.9322345 Z M26.62925,12.3091928 C26.62925,12.131175 26.6213385,11.9685713 26.613427,11.8062697 L26.5903009,11.4502341 C26.3642139,7.07081357 20.5452867,6.79245283 20.4908189,6.79245283 L19.4781436,6.79245283 C19.2678795,6.80000882 13.6278746,7.08652984 13.4020918,11.4502341 L13.3786615,11.8138257 C13.37075,11.9839854 13.3631427,12.138731 13.3631427,12.2859206 C13.3397125,13.1216071 13.3397125,13.8487904 13.3786615,14.5605596 C13.4176106,15.3729738 13.5265462,16.1778321 13.6981654,16.9669741 C13.8381386,17.5394118 13.9084294,18.1275658 13.9160367,18.7154177 L13.9005179,19.140968 L13.9005179,19.2183408 L13.8770877,19.7523943 C13.8694804,19.8373231 13.8694804,19.9146959 13.8770877,19.9999268 L26.0915706,19.9999268 C26.0994821,19.9146959 26.0994821,19.8373231 26.0915706,19.7523943 L26.0681403,19.2183408 L26.0681403,19.140968 L26.0526215,18.7154177 C26.060533,18.1275658 26.1305196,17.5394118 26.270797,16.9669741 C26.442112,16.169974 26.5513519,15.3654178 26.5903009,14.5605596 C26.6523761,13.8487904 26.6523761,13.1137489 26.62925,12.3091928 Z M12.4049353,17.2299207 C12.2412276,16.471607 12.1322919,15.7057372 12.0778241,14.9320094 C11.9065091,14.7926779 11.6883336,14.7231633 11.4622466,14.7307193 C11.3222733,15.3497016 11.3143619,15.9919561 11.4391205,16.6109384 C11.641473,17.1990924 12.0233562,17.7095715 12.5452127,18.057749 C12.5138709,17.7793883 12.4594031,17.5239977 12.4049353,17.2299207 Z M28.5453607,14.7231633 C28.3195779,14.7153052 28.1014024,14.785122 27.9300874,14.9241513 C27.8756196,15.6978791 27.7663797,16.464051 27.6029762,17.2223647 C27.5405969,17.5161396 27.4861291,17.7793883 27.4547873,18.0501931 C27.9766438,17.6941574 28.3661343,17.167962 28.5608795,16.564696 C28.6777267,15.9611279 28.6777267,15.3342874 28.5453607,14.7231633 L28.5453607,14.7231633 Z" id="Shape"></path>
                    <path d="M0.605381632,6.03773585 C0.274313592,6.03773585 0,5.76310705 0,5.43235422 L0,3.36585883 C0,1.50935516 1.50935516,0 3.36585883,0 L5.43235422,0 C5.76310705,0 6.03773585,0.274313592 6.03773585,0.605381632 C6.03773585,0.936449671 5.76310705,1.21076326 5.43235422,1.21076326 L3.36585883,1.21076326 C2.17937387,1.21076326 1.21076326,2.17937387 1.21076326,3.36585883 L1.21076326,5.43235422 C1.21076326,5.76310705 0.944332305,6.03773585 0.605381632,6.03773585 Z" id="Path"></path>
                    <path d="M5.43235422,40 L3.36585883,40 C1.50935516,40 0,38.4906448 0,36.6341412 L0,34.5676458 C0,34.2368929 0.274313592,33.9622642 0.605381632,33.9622642 C0.936449671,33.9622642 1.21076326,34.2368929 1.21076326,34.5676458 L1.21076326,36.6341412 C1.21076326,37.8206261 2.17937387,38.7892367 3.36585883,38.7892367 L5.43235422,38.7892367 C5.76310705,38.7892367 6.03773585,39.0635503 6.03773585,39.3946184 C6.03773585,39.7256864 5.76310705,40 5.43235422,40 Z" id="Path"></path>
                    <path d="M36.6341412,40 L34.5676458,40 C34.2368929,40 33.9622642,39.7256864 33.9622642,39.3946184 C33.9622642,39.0635503 34.2368929,38.7892367 34.5676458,38.7892367 L36.6341412,38.7892367 C37.8206261,38.7892367 38.7892367,37.8206261 38.7892367,36.6341412 L38.7892367,34.5676458 C38.7892367,34.2368929 39.0635503,33.9622642 39.3946184,33.9622642 C39.7256864,33.9622642 40,34.2368929 40,34.5676458 L40,36.6341412 C40,38.4906448 38.4906448,40 36.6341412,40 L36.6341412,40 Z" id="Path"></path>
                    <path d="M39.4018427,6.03773585 C39.0703344,6.03773585 38.795656,5.76310705 38.795656,5.43235422 L38.795656,3.36585883 C38.795656,2.17937387 37.8257572,1.21076326 36.6376944,1.21076326 L34.5684509,1.21076326 C34.2372582,1.21076326 33.9622642,0.936449671 33.9622642,0.605381632 C33.9622642,0.274313592 34.2372582,0 34.5684509,0 L36.6376944,0 C38.496667,0 39.9998207,1.50935516 39.9998207,3.3579762 L39.9998207,5.42415638 C40.0080294,5.76310705 39.733351,6.03773585 39.4018427,6.03773585 L39.4018427,6.03773585 Z" id="Path"></path>
                    <path d="M3.57651912,6.03773585 C3.27184401,6.03773585 3.01886792,5.78475977 3.01886792,5.48008466 L3.01886792,4.2085238 C3.01886792,3.554155 3.554155,3.01886792 4.2085238,3.01886792 L5.48008466,3.01886792 C5.78475977,3.01886792 6.03773585,3.27184401 6.03773585,3.57651912 C6.03773585,3.88148457 5.78475977,4.13417031 5.48008466,4.13417031 L4.2085238,4.13417031 C4.16408592,4.13417031 4.13417031,4.17134705 4.13417031,4.2085238 L4.13417031,5.48008466 C4.13417031,5.78475977 3.88148457,6.03773585 3.57651912,6.03773585 Z" id="Path"></path>
                    <path d="M5.48008466,36.9811321 L4.2085238,36.9811321 C3.554155,36.9811321 3.01886792,36.445845 3.01886792,35.7914762 L3.01886792,34.5199153 C3.01886792,34.2152402 3.27184401,33.9622642 3.57651912,33.9622642 C3.88148457,33.9622642 4.13417031,34.2152402 4.13417031,34.5199153 L4.13417031,35.7914762 C4.13417031,35.8359141 4.17134705,35.8658297 4.2085238,35.8658297 L5.48008466,35.8658297 C5.78475977,35.8658297 6.03773585,36.1185154 6.03773585,36.4234809 C6.03773585,36.728156 5.78475977,36.9811321 5.48008466,36.9811321 Z" id="Path"></path>
                    <path d="M35.7914762,36.9811321 L34.5199153,36.9811321 C34.2152402,36.9811321 33.9622642,36.728156 33.9622642,36.4234809 C33.9622642,36.1185154 34.2152402,35.8658297 34.5199153,35.8658297 L35.7914762,35.8658297 C35.8359141,35.8658297 35.8658297,35.8286529 35.8658297,35.7914762 L35.8658297,34.5199153 C35.8658297,34.2152402 36.1185154,33.9622642 36.4234809,33.9622642 C36.728156,33.9622642 36.9811321,34.2152402 36.9811321,34.5199153 L36.9811321,35.7914762 C36.9811321,36.445845 36.445845,36.9811321 35.7914762,36.9811321 Z" id="Path"></path>
                    <path d="M36.4234809,6.03773585 C36.1185154,6.03773585 35.8658297,5.78475977 35.8658297,5.48008466 L35.8658297,4.2085238 C35.8658297,4.16408592 35.8286529,4.13417031 35.7914762,4.13417031 L34.5199153,4.13417031 C34.2152402,4.13417031 33.9622642,3.88148457 33.9622642,3.57651912 C33.9622642,3.27184401 34.2152402,3.01886792 34.5199153,3.01886792 L35.7914762,3.01886792 C36.445845,3.01886792 36.9811321,3.554155 36.9811321,4.2085238 L36.9811321,5.48008466 C36.9811321,5.78475977 36.7357075,6.03773585 36.4234809,6.03773585 Z" id="Path"></path>
                    <path d="M14.2777157,20.9808547 L14.3396226,21.1320755 L2.92127017,21.1320755 C2.55768038,21.1320755 2.26415094,20.7946032 2.26415094,20.3773585 C2.26415094,19.959767 2.55768038,19.6226415 2.92127017,19.6226415 L14.0071372,19.6226415 C14.0225385,20.0842814 14.1152479,20.5459212 14.2777157,20.9808547 Z" id="Path"></path>
                    <path d="M37.7358491,20.3818406 C37.7358491,20.7966074 37.4423196,21.1320755 37.0787298,21.1320755 L25.6603774,21.1320755 L25.7222843,20.9820974 C25.8847521,20.5494023 25.9774615,20.090504 25.9850112,19.6226415 L37.0711802,19.6226415 C37.4423196,19.6316057 37.7358491,19.9670737 37.7358491,20.3818406 L37.7358491,20.3818406 Z" id="Path"></path>
                </g>
            </g>
        </g>
    </g>
</svg>