<?xml version="1.0" encoding="UTF-8"?>
<svg width="40px" height="40px" viewBox="0 0 40 40" version="1.1" xmlns="http://www.w3.org/2000/svg" xmlns:xlink="http://www.w3.org/1999/xlink">
    <title>referral_hover</title>
    <g id="Dashboard-" stroke="none" stroke-width="1" fill="none" fill-rule="evenodd">
        <g id="Artboard-5_p" transform="translate(-441.000000, -629.000000)" fill="#6B9CF3" fill-rule="nonzero">
            <g id="Group-3" transform="translate(318.000000, 596.000000)">
                <g id="referral_hover" transform="translate(123.000000, 33.000000)">
                    <path d="M27.2544828,31.7241379 L29.4206897,34.4317241 L27.32,36.5324138 L26.3634483,31.7510345 C26.54,31.7358621 26.7165517,31.7241379 26.8965517,31.7241379 L27.2544828,31.7241379 Z M31.6682759,31.7241379 L30.3448276,33.3786207 L29.0213793,31.7241379 L31.6682759,31.7241379 Z M33.4351724,31.7241379 L33.7931034,31.7241379 C33.9731034,31.7241379 34.1496552,31.7358621 34.3255172,31.7510345 L33.3689655,36.5324138 L31.2682759,34.4317241 L33.4351724,31.7241379 Z M36.5517241,26.2068966 L36.5110345,26.2068966 C36.5365517,25.98 36.5517241,25.7503448 36.5517241,25.5172414 L36.5517241,23.4482759 C37.3124138,23.4482759 37.9310345,24.0668966 37.9310345,24.8275862 C37.9310345,25.5882759 37.3124138,26.2068966 36.5517241,26.2068966 Z M24.137931,19.3103448 C24.137931,17.0282759 25.9937931,15.1724138 28.2758621,15.1724138 L32.4137931,15.1724138 C34.6958621,15.1724138 36.5517241,17.0282759 36.5517241,19.3103448 L36.5517241,22.0689655 L35.862069,22.0689655 L33.7931034,22.0689655 C33.0324138,22.0689655 32.4137931,21.4503448 32.4137931,20.6896552 L32.4137931,18.6206897 L32.4137931,17.9310345 L31.0344828,17.9310345 L31.0344828,18.6206897 C31.0344828,20.522069 29.4875862,22.0689655 27.5862069,22.0689655 L24.8275862,22.0689655 L24.137931,22.0689655 L24.137931,19.3103448 Z M24.137931,26.2068966 C23.3772414,26.2068966 22.7586207,25.5882759 22.7586207,24.8275862 C22.7586207,24.0668966 23.3772414,23.4482759 24.137931,23.4482759 L24.137931,25.5172414 C24.137931,25.7503448 24.1531034,25.98 24.1786207,26.2068966 L24.137931,26.2068966 Z M25.5172414,25.5172414 L25.5172414,23.4482759 L27.5862069,23.4482759 C29.0510345,23.4482759 30.3634483,22.7896552 31.2496552,21.7558621 C31.6675862,22.7489655 32.6496552,23.4482759 33.7931034,23.4482759 L35.1724138,23.4482759 L35.1724138,25.5172414 C35.1724138,28.1786207 33.0068966,30.3448276 30.3448276,30.3448276 C27.6827586,30.3448276 25.5172414,28.1786207 25.5172414,25.5172414 Z M40,40 L20.6896552,40 L20.6896552,37.9310345 C20.6896552,35.1662069 22.5082759,32.8193103 25.0110345,32.0193103 L26.2206897,38.0668966 C26.2703448,38.3158621 26.4537931,38.517931 26.6972414,38.5917241 C26.7627586,38.6110345 26.8296552,38.6206897 26.8965517,38.6206897 C27.0765517,38.6206897 27.2531034,38.5496552 27.3841379,38.4186207 L30.3448276,35.457931 L33.3055172,38.4186207 C33.4365517,38.5496552 33.6131034,38.6206897 33.7931034,38.6206897 C33.86,38.6206897 33.9268966,38.6110345 33.9931034,38.5910345 C34.2365517,38.517931 34.42,38.3158621 34.4696552,38.0662069 L35.6793103,32.0186207 C38.1813793,32.8193103 40,35.1662069 40,37.9310345 L40,40 Z" id="Shape"></path>
                    <path d="M6.56482759,16.5517241 L8.73103448,19.2593103 L6.63034483,21.36 L5.6737931,16.5786207 C5.85034483,16.5634483 6.02689655,16.5517241 6.20689655,16.5517241 L6.56482759,16.5517241 Z M10.9786207,16.5517241 L9.65517241,18.2062069 L8.33172414,16.5517241 L10.9786207,16.5517241 Z M12.7455172,16.5517241 L13.1034483,16.5517241 C13.2834483,16.5517241 13.46,16.5634483 13.6358621,16.5786207 L12.6793103,21.36 L10.5786207,19.2593103 L12.7455172,16.5517241 Z M15.862069,11.0344828 L15.8213793,11.0344828 C15.8468966,10.8075862 15.862069,10.577931 15.862069,10.3448276 L15.862069,8.27586207 C16.6227586,8.27586207 17.2413793,8.89448276 17.2413793,9.65517241 C17.2413793,10.4158621 16.6227586,11.0344828 15.862069,11.0344828 Z M3.44827586,4.13793103 C3.44827586,1.85586207 5.30413793,0 7.5862069,0 L11.7241379,0 C14.0062069,0 15.862069,1.85586207 15.862069,4.13793103 L15.862069,6.89655172 L15.1724138,6.89655172 L13.1034483,6.89655172 C12.3427586,6.89655172 11.7241379,6.27793103 11.7241379,5.51724138 L11.7241379,3.44827586 L11.7241379,2.75862069 L10.3448276,2.75862069 L10.3448276,3.44827586 C10.3448276,5.34965517 8.79793103,6.89655172 6.89655172,6.89655172 L4.13793103,6.89655172 L3.44827586,6.89655172 L3.44827586,4.13793103 Z M3.44827586,11.0344828 C2.68758621,11.0344828 2.06896552,10.4158621 2.06896552,9.65517241 C2.06896552,8.89448276 2.68758621,8.27586207 3.44827586,8.27586207 L3.44827586,10.3448276 C3.44827586,10.577931 3.46344828,10.8075862 3.48896552,11.0344828 L3.44827586,11.0344828 Z M4.82758621,10.3448276 L4.82758621,8.27586207 L6.89655172,8.27586207 C8.36137931,8.27586207 9.6737931,7.61724138 10.56,6.58344828 C10.977931,7.57655172 11.96,8.27586207 13.1034483,8.27586207 L14.4827586,8.27586207 L14.4827586,10.3448276 C14.4827586,13.0062069 12.3172414,15.1724138 9.65517241,15.1724138 C6.99310345,15.1724138 4.82758621,13.0062069 4.82758621,10.3448276 Z M19.3103448,24.8275862 L0,24.8275862 L0,22.7586207 C0,19.9937931 1.81862069,17.6468966 4.32137931,16.8468966 L5.53103448,22.8944828 C5.58068966,23.1434483 5.76413793,23.3455172 6.00758621,23.4193103 C6.07310345,23.4386207 6.14,23.4482759 6.20689655,23.4482759 C6.38689655,23.4482759 6.56344828,23.3772414 6.69448276,23.2462069 L9.65517241,20.2855172 L12.6158621,23.2462069 C12.7468966,23.3772414 12.9234483,23.4482759 13.1034483,23.4482759 C13.1703448,23.4482759 13.2372414,23.4386207 13.3034483,23.4186207 C13.5468966,23.3455172 13.7303448,23.1434483 13.78,22.8937931 L14.9896552,16.8462069 C17.4917241,17.6468966 19.3103448,19.9937931 19.3103448,22.7586207 L19.3103448,24.8275862 Z" id="Shape"></path>
                    <path d="M6.89655172,33.1034483 C6.89655172,32.722069 6.58758621,32.4137931 6.20689655,32.4137931 L5.11310345,32.4137931 L8.27586207,29.2510345 L11.4386207,32.4137931 L10.3448276,32.4137931 C9.96413793,32.4137931 9.65517241,32.722069 9.65517241,33.1034483 C9.65517241,35.9689655 11.1193103,38.4993103 13.3386207,39.9855172 C9.74689655,39.7503448 6.89655172,36.7537931 6.89655172,33.1034483 Z" id="Path"></path>
                </g>
            </g>
        </g>
    </g>
</svg>